# xmcd
#
# Track frame offsets:
#	150
#	5101
#	20139
#	29729
#	40747
#	62909
#	73300
#	89208
#	107460
#	134614
#	139200
#	153674
#	169214
#	184325
#	208565
#	220992
#	228207
#	235832
#	243827
#	254273
#	274583
#
# Disc length: 4073 seconds
#
# Revision: 0
# Processed by: cddbd v1.5.2PL0 Copyright (c) Steve Scherf et al.
# Submitted via: EasyCDDAExtractor 11.0.2.1
#
DISCID=430fe715
DTITLE=Lou Reed - The Raven
DYEAR=2003
DGENRE=Country
TTITLE0=Overture
TTITLE1=Edgar Allen Poe
TTITLE2=Call On Me
TTITLE3=Valley of Unrest (spoken track)
TTITLE4=Thousand Departed Friends (instrumental)
TTITLE5=Change
TTITLE6=Bed
TTITLE7=Perfect Day
TTITLE8=Raven (spoken track)
TTITLE9=Balloon
TTITLE10=Broadway Song
TTITLE11=Blind Rage
TTITLE12=Burning Embers
TTITLE13=Vanishing Act
TTITLE14=Guilty
TTITLE15=I Wanna Know
TTITLE16=Science of the Mind
TTITLE17=Hop Frog
TTITLE18=Tripitena's Speech (spoken track)
TTITLE19=Who I Am (Tripitena's song)
TTITLE20=Guardian Angel
EXTD=
EXTT0=
EXTT1=
EXTT2=
EXTT3=
EXTT4=
EXTT5=
EXTT6=
EXTT7=
EXTT8=
EXTT9=
EXTT10=
EXTT11=
EXTT12=
EXTT13=
EXTT14=
EXTT15=
EXTT16=
EXTT17=
EXTT18=
EXTT19=
EXTT20=
PLAYORDER=
